<svg width="29" height="55" viewBox="0 0 29 55" fill="none" xmlns="http://www.w3.org/2000/svg">
<g clip-path="url(#clip0_10499_9957)">
<path d="M29.0003 25.0643C29.0003 30.2784 29.0003 35.4724 29.0003 40.6866C29.0003 48.0548 23.1478 54.3762 15.8423 54.96C8.15335 55.5639 1.35237 50.3095 0.202062 42.8809C0.101157 42.2166 0.0406141 41.5321 0.0406141 40.8476C0.0204331 33.3787 0.0406141 25.9098 0.000252203 18.4409C-0.0199287 14.9984 1.17075 12.1196 3.67318 9.74402C5.97381 7.54965 8.21389 5.31503 10.4742 3.0804C12.573 1.00683 15.0754 0.000238247 18.0218 0.000238247C20.0399 0.000238247 22.058 -0.0400253 23.9348 0.9263C27.0427 2.55697 28.8792 5.09358 28.9397 8.61664C29.0608 14.0925 28.9801 19.5885 29.0003 25.0643C28.9801 25.0643 28.9801 25.0643 29.0003 25.0643ZM26.5382 25.1448C26.5382 19.7696 26.5584 14.3743 26.5382 8.99914C26.518 5.91898 24.4797 3.32198 21.4929 2.67776C20.4032 2.43618 19.2327 2.49658 18.1025 2.45631C15.7616 2.39592 13.7838 3.22132 12.1088 4.87213C9.88891 7.10675 7.64883 9.32125 5.36838 11.4955C3.30993 13.4483 2.36142 15.8037 2.3816 18.6423C2.42196 26.0105 2.3816 33.3787 2.40178 40.7671C2.40178 41.5321 2.48251 42.3374 2.62377 43.0822C3.75391 48.9003 9.50547 53.2286 15.3176 52.665C21.7755 52.0409 26.5382 47.0079 26.5382 40.7671C26.5382 35.5529 26.5382 30.3589 26.5382 25.1448Z" fill="#FFCC05"></path>
<path d="M24.9237 35.3912C20.0198 27.56 8.90006 27.6807 4.05664 35.3912C4.03646 35.1295 3.99609 34.9483 3.99609 34.7671C3.99609 29.251 3.99609 23.7349 3.99609 18.2389C3.99609 16.1452 4.72261 14.3736 6.23618 12.904C8.57717 10.6291 10.9182 8.33412 13.239 6.01896C14.5709 4.69026 16.1652 4.00578 18.0622 4.06618C18.9502 4.10644 19.8381 4.02592 20.7059 4.12657C22.9662 4.40842 24.7623 6.34107 24.8834 8.63609C24.9439 9.92452 24.9237 11.1928 24.9237 12.4813C24.9237 19.7891 24.9237 27.0768 24.9237 34.3846C24.9237 34.6463 24.9237 34.9282 24.9237 35.3912ZM14.47 22.0237C13.8646 22.0237 13.2591 22.0439 12.6537 22.0237C10.0302 21.8828 9.62657 22.5069 9.72748 24.9428C9.76784 26.2313 10.3531 26.8553 11.6245 26.8553C13.1582 26.8755 14.7122 26.8151 16.2459 26.8755C19.2327 26.9963 19.1923 26.0903 19.2327 23.8758C19.2327 23.8356 19.2327 23.7752 19.2327 23.7349C19.1923 22.6881 18.5667 22.064 17.4971 22.0439C16.4881 22.0237 15.479 22.0237 14.47 22.0237Z" fill="#FFCC05"></path>
<path d="M24.0084 40.9948C23.9715 46.3407 19.7359 50.5293 14.3586 50.5109C9.18377 50.4925 4.91133 46.157 4.92975 40.9581C4.94816 35.6673 9.27584 31.442 14.6348 31.4788C19.8096 31.5339 24.0268 35.8143 24.0084 40.9948ZM10.1045 40.9581C10.0861 43.383 12.0382 45.3671 14.4506 45.3671C16.8631 45.3671 18.8336 43.4014 18.852 40.9765C18.852 38.5883 16.9183 36.6226 14.5243 36.6042C12.1119 36.5675 10.123 38.5331 10.1045 40.9581Z" fill="#FFCC05"></path>
<path d="M14.511 37.8145C16.2668 37.8145 17.6592 39.2237 17.6592 40.9953C17.6592 42.7467 16.2466 44.156 14.4908 44.1761C12.7149 44.1761 11.2417 42.7065 11.2821 40.955C11.3224 39.2035 12.7553 37.8145 14.511 37.8145Z" fill="#FFCC05"></path>
</g>
<defs>
<clipPath id="clip0_10499_9957">
<rect width="29" height="55" fill="white"></rect>
</clipPath>
</defs>
</svg>