<svg width="49" height="48" viewBox="0 0 49 48" fill="none" xmlns="http://www.w3.org/2000/svg">
<g clip-path="url(#clip0_10499_10062)">
<path d="M-0.000911457 35.4746C0.101172 34.753 0.203255 34.0185 0.318099 33.2324C0.560547 33.2711 0.790234 33.2969 1.00716 33.3484C3.12539 33.8252 5.14154 34.5468 6.82591 35.99C8.3444 37.2915 9.22487 38.9538 9.59492 40.9769C9.17383 40.9511 8.80378 40.8995 8.42096 40.8995C6.02201 40.8995 3.61029 40.9124 1.21133 40.9382C0.905078 40.9382 0.726432 40.8738 0.64987 40.5774C0.458464 39.8687 0.279818 39.1599 0.0884115 38.4383C0.0501302 38.2837 0.0246094 38.1291 -0.0136719 37.9744C-0.000911457 37.1497 -0.000911457 36.3122 -0.000911457 35.4746Z" fill="#FFCC05"></path>
<path d="M48.9997 35.5789C47.4685 37.0092 45.6437 37.8597 43.6276 38.4911C43.5 38.0659 43.3852 37.6535 43.2576 37.1896C42.8492 37.2798 42.4664 37.3829 42.0198 37.486C41.9305 37.1381 41.8539 36.803 41.7773 36.4551C42.7216 36.1201 43.6659 35.8624 44.5336 35.4629C45.8734 34.8701 47.1622 34.1743 48.4766 33.5429C48.6424 33.4656 48.8211 33.414 48.9997 33.3496C48.9997 34.097 48.9997 34.8315 48.9997 35.5789Z" fill="#FFCC05"></path>
<path d="M10.719 41.0665C10.3362 38.7212 9.34089 36.7368 7.56719 35.1905C6.07422 33.9019 4.32604 33.1158 2.45026 32.5875C1.83776 32.42 1.2125 32.2783 0.523438 32.1107C0.651042 31.5051 0.765885 30.8995 0.89349 30.2938C0.931771 30.0877 0.970052 29.8815 1.04661 29.6882C1.78672 27.8197 1.31458 25.8997 1.28906 24.0055C1.26354 21.0289 1.19974 18.0522 1.16146 15.0627C1.16146 14.8952 1.18698 14.7148 1.19974 14.5215C6.35495 14.5215 11.4719 14.5215 16.525 14.5215C16.6654 16.7507 16.7292 18.98 16.9461 21.1964C17.163 23.4385 17.8138 25.5776 18.8346 27.5105C17.9669 28.0259 17.1375 28.5413 16.2953 29.0181C16.1805 29.0826 16.0273 29.0826 15.887 29.0954C15.2617 29.1728 14.8279 29.6882 14.8661 30.2809C14.9172 30.9124 15.4404 31.3634 16.0784 31.3247C16.6781 31.286 17.1375 30.7706 17.0737 30.1392C17.0482 29.8557 17.1503 29.714 17.3544 29.6109C17.9542 29.2887 18.5667 28.9666 19.1792 28.6573C19.2812 28.6058 19.4982 28.6444 19.5747 28.7218C20.3021 29.5465 21.0167 30.384 21.6419 31.1056C20.9784 31.634 20.251 32.2267 19.5109 32.7937C19.4089 32.871 19.2557 32.9097 19.1281 32.9483C18.5284 33.1287 18.1711 33.7086 18.3115 34.2885C18.4518 34.8812 19.0388 35.2678 19.613 35.1518C20.2128 35.0358 20.6339 34.4302 20.4552 33.7988C20.3659 33.4767 20.4807 33.322 20.6849 33.1416C21.2846 32.5875 21.9865 32.2267 22.7776 32.0205C22.918 31.9819 23.0966 32.0205 23.2242 32.085C24.0026 32.4458 24.7682 32.8324 25.5977 33.2318C25.4445 33.3478 25.2786 33.4767 25.1128 33.6055C24.7172 33.9534 24.3089 34.2885 23.926 34.6622C23.607 34.9714 23.3518 35.3064 22.8669 35.4224C22.3438 35.5513 22.1013 36.1956 22.2544 36.7239C22.4203 37.278 22.969 37.6259 23.5049 37.5228C24.0919 37.4069 24.5258 36.8914 24.3854 36.2987C24.2833 35.8605 24.4492 35.6157 24.7172 35.3967C25.4062 34.8297 26.1208 34.2756 26.8227 33.7344C26.912 33.6699 27.0651 33.6055 27.1672 33.6313C28.2135 33.8117 29.2599 34.005 30.3956 34.2111C30.2424 34.34 30.1148 34.4302 30 34.5462C29.4896 35.0487 28.9919 35.5642 28.4815 36.0796C28.3539 36.2085 28.2008 36.3373 28.0477 36.4275C27.4607 36.7368 27.231 37.3553 27.4862 37.9352C27.7414 38.4764 28.3922 38.7341 28.9409 38.4764C29.5151 38.2187 29.7193 37.613 29.5023 36.9687C29.4513 36.827 29.4768 36.5693 29.5789 36.492C30.3956 35.7832 31.2378 35.0874 32.0799 34.4044C32.182 34.3271 32.3479 34.3142 32.4883 34.3142C34.1599 34.34 35.8315 34.3658 37.5031 34.4044C37.8477 34.4173 38.2049 34.4431 38.5495 34.5333C39.7362 34.8426 40.4891 35.6286 40.7315 36.8399C40.9484 37.9094 41.0633 39.0047 41.2036 40.0871C41.2164 40.216 41.1143 40.435 40.9995 40.4995C37.0565 42.9478 32.8201 44.4554 28.137 44.4039C25.9422 44.3781 23.7729 44.056 21.693 43.3473C18.1966 42.1618 14.6237 41.4273 10.9615 41.0665C10.8977 41.0922 10.8339 41.0793 10.719 41.0665Z" fill="#FFCC05"></path>
<path d="M24.2566 6.19843C24.1418 10.6956 24.3715 15.1026 26.4642 19.2261C26.2983 19.3163 26.1324 19.3936 25.9665 19.4838C25.3158 19.8575 24.665 20.2312 24.0142 20.592C23.8611 20.6822 23.6697 20.7466 23.491 20.7595C22.8658 20.8368 22.4447 21.3136 22.4829 21.945C22.5085 22.5378 22.9934 23.0017 23.5803 23.0017C24.1928 23.0017 24.7033 22.5249 24.6777 21.9064C24.6522 21.5327 24.7926 21.3394 25.0861 21.1847C25.7241 20.8497 26.3493 20.5147 26.9491 20.2054C27.7658 21.1074 28.5441 21.9708 29.348 22.8599C29.0673 23.0145 28.7355 23.1692 28.4165 23.3753C28.1103 23.5686 27.8168 23.8006 27.5361 24.0454C27.2298 24.316 26.9619 24.5995 26.5408 24.7284C25.9921 24.8959 25.7496 25.5788 25.9538 26.1329C26.1452 26.6613 26.7322 26.9576 27.2809 26.803C27.8551 26.6355 28.2379 26.0814 28.072 25.5144C27.9827 25.1794 28.0592 24.9732 28.3017 24.8315C28.978 24.4449 29.6543 24.0712 30.3434 23.7233C30.4582 23.6588 30.6624 23.7104 30.79 23.7748C31.5811 24.1485 32.3595 24.5351 33.0996 24.8959C32.4361 25.5402 31.7215 26.236 31.0069 26.9061C30.9176 26.9963 30.7517 26.9963 30.6113 27.0478C29.9861 27.2411 29.6671 27.8339 29.8457 28.4524C29.9988 29.0065 30.5858 29.3286 31.1728 29.1998C31.747 29.0709 32.0915 28.4782 32.0022 27.8725C31.9767 27.6792 32.0277 27.3957 32.1553 27.2927C32.8954 26.6484 33.6483 26.0427 34.4139 25.45C34.5288 25.3598 34.7457 25.334 34.8988 25.3598C35.9069 25.5273 36.9022 25.7206 38.0507 26.0041C37.9358 26.0556 37.7954 26.0685 37.7189 26.1458C37.1447 26.6999 36.596 27.2798 36.0217 27.8339C35.9069 27.9498 35.7538 28.0529 35.6007 28.1302C35.052 28.4266 34.8223 29.0451 35.0775 29.6121C35.3327 30.1662 35.9707 30.4111 36.5194 30.1662C37.0809 29.9214 37.3488 29.3029 37.0809 28.723C36.9533 28.4395 37.0043 28.2591 37.2085 28.0916C37.9996 27.4215 38.8035 26.7643 39.6202 26.12C39.735 26.0298 39.952 26.017 40.1178 26.017C41.8277 26.0427 43.5249 26.0685 45.2348 26.0943C46.8298 26.12 47.9272 26.919 48.2973 28.4782C48.5397 29.5348 48.6418 30.6301 48.7822 31.7125C48.7949 31.8543 48.6928 32.0991 48.578 32.1764C46.3322 33.581 43.9587 34.6892 41.3811 35.3592C41.3428 35.3335 41.2918 35.3077 41.2663 35.269C40.3858 33.8902 39.097 33.349 37.5275 33.3233C35.8176 33.2975 34.1204 33.3104 32.4105 33.2331C30.4199 33.1429 28.4421 32.9238 26.5152 32.3439C22.6105 31.1842 20.0967 28.607 18.8335 24.7413C17.7488 21.4167 17.5829 17.989 17.7488 14.5227C17.7616 14.381 17.8637 14.1877 17.9785 14.0975C18.6421 13.6078 18.9738 12.9378 18.9866 12.1131C18.9993 11.2626 19.0121 10.3992 18.9866 9.54877C18.9483 8.16998 17.9913 7.22931 16.6259 7.22931C14.2014 7.21642 11.777 7.22931 9.35247 7.22931C9.17383 7.22931 9.00794 7.22931 8.79102 7.22931C8.79102 6.8685 8.79102 6.54635 8.79102 6.18555C13.959 6.19843 19.0759 6.19843 24.2566 6.19843Z" fill="#FFCC05"></path>
<path d="M41.3701 41.6211C41.3701 42.4071 41.3828 43.103 41.3573 43.7988C41.3573 43.9148 41.2297 44.0565 41.1276 44.1467C39.6474 45.4482 37.8992 46.2471 36.0107 46.827C35.8831 46.3889 35.7682 45.9765 35.6406 45.5126C34.7091 45.7575 33.7904 46.0152 32.8461 46.26C32.9482 46.6853 33.0375 47.0589 33.1651 47.5486C31.8891 47.6904 30.6513 47.8321 29.3497 47.9867C29.3497 47.4842 29.3497 47.0718 29.3497 46.6337C28.3672 46.6337 27.4357 46.6337 26.4404 46.6337C26.4404 47.0461 26.4404 47.4584 26.4404 47.9738C25.1388 47.7934 23.9138 47.6388 22.6378 47.4584C22.7398 47.0332 22.8164 46.6853 22.9185 46.26C21.9359 46.1569 20.9917 46.0667 20.0219 45.9636C19.9326 46.4791 19.856 46.9559 19.7667 47.4584C18.5799 47.4197 17.457 47.1749 16.3852 46.6724C16.3086 46.6337 16.2703 46.4275 16.2831 46.3244C16.3596 45.9379 16.4745 45.5513 16.5893 45.1261C14.8284 44.5333 13.1185 43.9148 11.2555 44.5075C10.8727 44.6364 10.694 44.791 10.7195 45.242C10.7578 46.0281 10.7323 46.8141 10.7323 47.6388C10.5664 47.6517 10.426 47.6775 10.2984 47.6775C7.17213 47.6775 4.04583 47.6775 0.919531 47.6904C0.56224 47.6904 0.396354 47.6002 0.383594 47.2265C0.332552 45.7317 0.26875 44.2369 0.230469 42.7422C0.230469 42.536 0.294271 42.3298 0.319792 42.1108C0.970573 42.0721 1.58307 42.0334 2.20833 42.0077C6.78932 41.8402 11.3703 41.9819 15.862 42.9612C17.9802 43.4122 20.0474 44.0952 22.1273 44.6751C28.2906 46.3889 34.1477 45.5255 39.7495 42.536C40.2599 42.2396 40.7703 41.9561 41.3701 41.6211Z" fill="#FFCC05"></path>
<path d="M9.04622 13.4011C6.60898 13.4011 4.17174 13.4011 1.72174 13.4011C0.573307 13.4011 0.177734 12.9888 0.177734 11.8291C0.177734 11.1074 0.177734 10.3729 0.177734 9.65134C0.190495 8.81375 0.64987 8.33697 1.49206 8.32409C2.47461 8.3112 3.46992 8.32409 4.45247 8.32409C8.42096 8.32409 12.3895 8.32409 16.3707 8.32409C17.5191 8.32409 17.9147 8.73644 17.9147 9.89617C17.9147 10.6049 17.9147 11.3136 17.9147 12.0223C17.902 12.9501 17.4553 13.3882 16.5111 13.3882C14.0228 13.414 11.5345 13.4011 9.04622 13.4011Z" fill="#FFCC05"></path>
<path d="M16.6263 5.05128C14.1508 5.05128 11.688 5.05128 9.2125 5.05128C8.19167 5.05128 7.77057 4.61315 7.75781 3.58228C7.75781 2.86067 7.75781 2.13906 7.75781 1.40456C7.78333 0.463893 8.24271 0 9.1487 0C14.1508 0 19.1529 0 24.1549 0C25.0737 0 25.5203 0.463893 25.5331 1.40456C25.5458 2.13906 25.5331 2.88644 25.5331 3.62094C25.5203 4.58738 25.0865 5.03839 24.1294 5.03839C21.6284 5.05127 19.1273 5.05128 16.6263 5.05128Z" fill="#FFCC05"></path>
</g>
<defs>
<clipPath id="clip0_10499_10062">
<rect width="49" height="48" fill="white"></rect>
</clipPath>
</defs>
</svg>