<svg width="50" height="50" viewBox="0 0 50 50" fill="none" xmlns="http://www.w3.org/2000/svg">
<path d="M0 32.6316C0 29.735 0 26.8384 0 23.9418C0.0244559 23.7829 0.0611396 23.624 0.0733676 23.4651C0.269014 20.5074 1.06383 17.7086 2.29885 15.032C3.92516 11.4876 6.19956 8.39546 9.12204 5.80441C11.1763 3.97112 13.4629 2.48004 16.0553 1.53895C20.5796 -0.111013 25.2384 -0.46545 29.934 0.585638C39.7408 2.78559 46.1604 8.72546 49.193 18.2952C49.4497 19.1019 49.5965 19.9452 49.8044 20.8374C49.5231 20.813 49.3519 20.813 49.1807 20.7885C46.4539 20.4463 43.7271 20.1041 41.0002 19.7619C36.9528 19.2608 32.8931 18.7841 28.8457 18.2464C25.9599 17.8675 23.6366 19.8352 23.6366 22.7563C23.6366 24.7362 23.661 26.7284 23.6244 28.7083C23.5877 30.8594 24.5415 32.3383 26.4612 33.2916C32.991 36.5304 39.5207 39.8059 46.0382 43.0691C46.1971 43.1425 46.3438 43.228 46.515 43.3136C45.7814 45.868 44.4118 47.8968 42.0029 49.0579C41.0858 49.4979 40.0465 49.6934 39.056 49.999C38.5057 49.999 37.9433 49.999 37.393 49.999C36.5248 49.7545 35.62 49.5957 34.7885 49.2534C24.1379 44.8902 13.4996 40.5025 2.86134 36.1148C1.78528 35.6749 0.94155 34.9538 0.440205 33.8904C0.256786 33.4993 0.146735 33.0594 0 32.6316ZM11.8122 20.7274C8.58401 20.7274 5.955 23.3674 5.955 26.5939C5.96723 29.7961 8.58401 32.4238 11.7877 32.436C15.0037 32.4483 17.6694 29.8083 17.6694 26.5939C17.6816 23.3551 15.0404 20.7274 11.8122 20.7274Z" fill="#FFCC05"></path>
</svg>