<svg width="52" height="50" viewBox="0 0 52 50" fill="none" xmlns="http://www.w3.org/2000/svg">
<g clip-path="url(#clip0_10499_9973)">
<path d="M26.7864 7.14369C28.0619 7.3988 29.3374 6.88859 30.3578 6.37839C31.6333 5.86818 32.9088 5.10288 34.1843 4.59267C34.6945 4.33757 35.2047 3.82737 35.7149 3.57227C39.0313 4.59267 42.6027 6.12329 44.6435 9.43961C45.4088 10.9702 46.1741 12.5008 46.6843 14.2866C47.9598 17.6029 49.2353 21.1743 50.5108 24.7457C51.2761 26.7866 51.5313 29.0825 51.5313 31.1233C51.5313 35.2049 51.5313 39.2866 51.5313 43.3682C51.5313 43.6233 51.5313 43.8784 51.5313 44.1335C48.9802 44.1335 46.4292 44.1335 43.8782 44.1335C43.8782 43.8784 43.8782 43.6233 43.8782 43.3682C43.8782 39.7968 43.8782 36.2253 43.8782 32.6539C43.8782 30.8682 43.6231 29.0825 42.6027 27.5519C41.8374 26.0212 41.0721 24.2355 40.3068 22.7049C40.3068 22.7049 40.0517 22.4498 40.0517 22.1947C39.7966 22.7049 39.7966 23.2151 39.5415 23.7253C39.2864 25.0008 38.7761 26.0212 38.521 27.2968C38.521 27.807 38.2659 27.807 37.7557 27.807C35.4598 27.807 32.9088 27.807 30.6129 27.807C30.1027 27.807 29.5925 28.0621 29.5925 28.5723C29.3374 29.3376 29.8476 29.8478 30.6129 29.8478C32.9088 29.8478 35.2047 29.8478 37.2455 29.8478C37.5006 29.8478 37.7557 29.8478 38.0108 29.8478C38.0108 35.2049 38.0108 40.5621 38.0108 45.9192C34.1843 45.9192 30.3578 45.9192 26.5312 45.9192C26.7864 32.909 26.7864 20.1539 26.7864 7.14369Z" fill="#FFCC05"></path>
<path d="M24.7449 7.3976C24.7449 20.1527 24.7449 33.1629 24.7449 45.918C20.9184 45.918 17.0918 45.918 13.2653 45.918C13.2653 40.5609 13.2653 35.2037 13.2653 29.8466C14.0306 29.8466 14.5408 29.8466 15.3061 29.8466C17.0918 29.8466 18.8776 29.8466 20.6633 29.8466C21.6837 29.8466 21.9388 29.5915 21.9388 28.8262C21.9388 28.0609 21.4286 27.8058 20.6633 27.8058C18.3673 27.8058 16.0714 27.8058 13.7755 27.8058C13.2653 27.8058 13.0102 27.5507 12.7551 27.0405C12.5 25.5098 11.9898 23.9792 11.7347 22.4486C11.7347 22.4486 11.7347 22.1935 11.4796 22.1935C11.2245 22.1935 11.2245 22.4486 11.2245 22.7037C10.4592 24.2343 9.69388 25.5098 8.92857 27.0405C8.16326 28.8262 7.65306 30.6119 7.65306 32.6527C7.65306 36.2241 7.65306 39.7956 7.65306 43.367C7.65306 43.6221 7.65306 43.8772 7.65306 44.1323C5.10204 44.1323 2.55102 44.1323 0 44.1323C0 43.8772 0 43.6221 0 43.367C0 39.5405 0 35.7139 0 31.8874C0 29.3364 0.510204 26.7854 1.27551 24.2343C2.80612 20.4078 4.08163 16.3262 5.61224 12.4996C6.88775 8.67311 9.43877 6.12209 13.2653 4.84658C13.7755 4.33638 14.5408 3.82617 15.3061 3.82617C15.5612 3.82617 15.5612 3.82617 15.8163 4.08127C16.0714 4.33638 16.5816 4.59148 16.8367 4.84658C18.8775 5.86699 20.9184 6.63229 22.9592 7.3976C23.4694 7.3976 24.2347 7.3976 24.7449 7.3976Z" fill="#FFCC05"></path>
<path d="M14.2852 47.4492C21.9382 47.4492 29.5913 47.4492 37.2443 47.4492C37.2443 48.2145 37.2443 49.2349 37.2443 50.0002C29.5913 50.0002 21.9382 50.0002 14.2852 50.0002C14.2852 49.2349 14.2852 48.2145 14.2852 47.4492Z" fill="#FFCC05"></path>
<path d="M33.9293 2.80612C31.8885 3.82653 30.1028 4.59184 28.0619 5.61225C28.5721 4.59184 29.3375 3.57143 29.8477 2.55102C27.2966 2.55102 24.7456 2.55102 22.1946 2.55102C22.7048 3.57143 23.4701 4.59184 23.9803 5.86735C21.6844 4.59184 19.3885 3.82653 17.3477 2.80612C18.3681 1.27551 19.6436 0 21.9395 0C24.4905 0 26.7864 0 29.3375 0C31.6334 0 32.9089 1.02041 33.9293 2.80612Z" fill="#FFCC05"></path>
<path d="M0 45.918C2.55102 45.918 5.10204 45.918 7.65306 45.918C7.65306 46.9384 7.65306 47.7037 7.65306 48.7241C5.10204 48.7241 2.55102 48.7241 0 48.7241C0 47.9588 0 46.9384 0 45.918Z" fill="#FFCC05"></path>
<path d="M51.53 45.918C51.53 46.9384 51.53 47.7037 51.53 48.7241C48.979 48.7241 46.428 48.7241 43.877 48.7241C43.877 47.7037 43.877 46.9384 43.877 45.918C46.6831 45.918 48.979 45.918 51.53 45.918Z" fill="#FFCC05"></path>
</g>
<defs>
<clipPath id="clip0_10499_9973">
<rect width="51.5306" height="50" fill="white"></rect>
</clipPath>
</defs>
</svg>