<svg width="62" height="33" viewBox="0 0 62 33" fill="none" xmlns="http://www.w3.org/2000/svg">
<g clip-path="url(#clip0_10499_9991)">
<path d="M62.0002 24.9813C61.8872 25.434 61.7903 25.8706 61.6773 26.3233C60.5148 30.5433 56.6721 33.2434 52.2319 32.9847C48.1471 32.7422 44.6111 29.46 43.9814 25.3047C43.4648 21.974 45.0632 18.2229 47.7273 16.5898C48.1793 17.5599 48.6314 18.5139 49.0512 19.5002C49.0997 19.6134 48.9705 19.8559 48.8736 19.9852C47.3559 21.6506 46.8715 23.5746 47.5658 25.7089C48.2601 27.8431 49.7939 29.1205 51.9898 29.557C55.1059 30.1552 58.0929 27.924 58.5773 24.6903C59.0293 21.6021 56.6882 18.6109 53.5882 18.3037C53.3622 18.2875 53.1361 18.2067 52.9262 18.2714C52.2158 18.4492 51.9413 18.0773 51.7153 17.4953C51.4085 16.7353 51.0372 15.9916 50.6658 15.1832C52.1351 14.8113 53.5559 14.779 54.9606 15.1185C58.6257 15.9754 61.2898 18.8534 61.8872 22.6045C61.9033 22.7177 61.9517 22.8309 62.0002 22.9441C62.0002 23.607 62.0002 24.3022 62.0002 24.9813Z" fill="#FFCC05"></path>
<path d="M0 22.9271C0.113021 22.4259 0.209896 21.9085 0.371354 21.4073C1.98594 15.9423 7.87917 13.5655 12.6099 15.6351C12.0448 16.5405 11.4958 17.446 10.8984 18.3191C10.8177 18.4323 10.4948 18.4323 10.3172 18.3838C7.16875 17.7208 4.11719 19.7096 3.50365 22.8301C2.93854 25.7728 4.71458 28.6508 7.58854 29.4269C10.4464 30.203 13.4333 28.6508 14.4021 25.8536C14.5797 25.3524 14.8219 25.2231 15.2901 25.2392C16.1781 25.2716 17.05 25.2554 18.0026 25.2554C17.825 26.7429 17.2922 28.004 16.4849 29.1358C14.3052 32.224 10.624 33.6145 6.95885 32.7576C3.39062 31.9168 0.726563 29.0065 0.129167 25.2716C0.113021 25.1745 0.0645833 25.0937 0.0322917 24.9967C0 24.3014 0 23.6062 0 22.9271Z" fill="#FFCC05"></path>
<path d="M6.53945 24.7372C6.53945 24.0581 6.53945 23.4599 6.53945 22.8131C11.2056 22.8131 15.8233 22.8131 20.5863 22.8131C19.004 20.0645 17.4863 17.4128 15.9202 14.6803C15.7749 14.8905 15.6457 15.0522 15.5488 15.2301C14.1926 17.3805 12.8363 19.5309 11.5124 21.6975C11.254 22.134 10.9634 22.3281 10.4629 22.2796C10.0592 22.2311 9.62331 22.2634 9.0905 22.2634C9.25195 21.9724 9.36497 21.7945 9.478 21.6166C11.2056 18.868 12.9332 16.1032 14.6608 13.3545C15.0322 12.7725 14.9353 12.5461 14.241 12.4491C11.4639 12.061 8.68685 11.6892 5.90977 11.3335C5.71602 11.3011 5.45768 11.4466 5.29622 11.5922C3.8431 12.8856 2.42227 14.1791 0.936849 15.5211C0.726953 15.2947 0.517057 15.0846 0.291016 14.8259C0.565495 14.5672 0.823828 14.3246 1.08216 14.0821C2.32539 12.9503 3.56862 11.8347 4.7957 10.6867C4.95716 10.525 5.08633 10.2178 5.07018 9.9753C4.98945 8.43929 5.9582 7.4045 7.47591 7.50151C9.4457 7.63086 11.4316 7.7117 13.3853 7.95423C14.3217 8.06741 15.3228 8.35844 16.1139 8.85967C18.3259 10.2178 20.6509 10.7837 23.2342 10.5412C24.5421 10.4118 25.8499 10.525 27.1738 10.5089C27.3676 10.5089 27.6582 10.428 27.7389 10.2987C28.853 8.29377 30.7098 7.27515 32.7441 6.5314C35.8441 5.38343 39.0733 4.97922 42.3509 4.8337C42.5285 4.8337 42.7061 4.81753 42.8999 4.80136C42.9322 4.80136 42.9645 4.76903 43.0775 4.70435C42.6577 3.78275 42.2218 2.86114 41.7697 1.87486C40.4134 2.23057 39.0895 2.58627 37.6848 2.94198C37.5233 2.39225 37.3941 1.87486 37.2165 1.29279C37.7171 1.14727 38.2014 1.01792 38.6697 0.888576C39.6223 0.629879 40.5749 0.371182 41.5275 0.112486C42.577 -0.16238 42.7707 -0.0653683 43.2228 0.888576C46.5811 8.11592 49.9395 15.3433 53.2978 22.5706C53.5561 23.1365 53.8145 23.7024 54.1051 24.333C53.5884 24.5755 53.104 24.8019 52.5389 25.0767C50.6176 20.9376 48.6962 16.8469 46.7749 12.7078C46.5973 12.7401 46.4358 12.7725 46.2905 12.821C44.8535 13.2737 43.3842 13.3707 41.8665 13.3545C39.2832 13.306 36.6999 13.3384 34.1165 13.3384C33.8905 13.3384 33.6806 13.3384 33.4707 13.3384C33.277 13.9366 33.6483 13.8881 33.9712 13.8881C36.9098 13.8881 39.8645 13.8881 42.803 13.8881C43.0452 13.8881 43.2874 13.8881 43.5457 13.8881C43.465 14.5348 43.1744 14.7288 42.577 14.7288C40.5264 14.6965 38.4598 14.7127 36.4092 14.7127C36.1832 15.1492 36.3285 15.2624 36.7483 15.2624C38.5566 15.2462 40.3811 15.2624 42.1895 15.2624C42.4155 15.2624 42.6254 15.2624 42.916 15.2624C42.8353 15.4888 42.7707 15.6505 42.69 15.8121C40.8978 19.5147 39.0895 23.2173 37.2973 26.9199C37.1035 27.3241 36.8775 27.4212 36.4738 27.4212C32.9863 27.405 29.4988 27.405 25.9952 27.4212C24.1868 27.4212 22.7983 26.6774 21.878 25.1091C21.6681 24.7533 21.4259 24.7372 21.0869 24.7372C16.4853 24.7372 11.8837 24.7372 7.28216 24.7372C7.08841 24.7372 6.84622 24.7372 6.53945 24.7372Z" fill="#FFCC05"></path>
<path d="M51.6342 7.0177C51.4566 7.80996 51.3113 8.53754 51.1014 9.24896C50.9399 9.79869 50.5201 10.0089 49.9227 9.9442C48.4212 9.76635 47.291 8.42436 47.3394 6.87218C47.3717 5.40084 48.5826 4.1397 50.0357 4.01035C50.5524 3.96184 50.9399 4.1882 51.0691 4.65709C51.3113 5.43318 51.4566 6.24161 51.6342 7.0177Z" fill="#FFCC05"></path>
<path d="M13.2402 19.9026C13.7892 19.0295 14.3704 18.1079 15.0001 17.1055C16.5663 18.496 17.5189 20.1613 17.9548 22.2632C16.8246 22.2632 15.759 22.2632 14.6772 22.2471C14.5803 22.2471 14.4673 22.0854 14.4027 21.9884C14.0314 21.3255 13.66 20.6625 13.2402 19.9026Z" fill="#FFCC05"></path>
</g>
<defs>
<clipPath id="clip0_10499_9991">
<rect width="62" height="33" fill="white"></rect>
</clipPath>
</defs>
</svg>