<svg width="38" height="38" viewBox="0 0 38 38" fill="none" xmlns="http://www.w3.org/2000/svg">
<path fill-rule="evenodd" clip-rule="evenodd" d="M27.5507 18.9996C28.8988 19 30.2279 18.6817 31.4295 18.0706C32.6311 17.4595 33.6711 16.5729 34.4648 15.4832C35.2584 14.3935 35.7831 13.1316 35.9961 11.8005C36.2091 10.4694 36.1043 9.10672 35.6903 7.8238C35.4908 7.2082 34.7213 7.0809 34.2634 7.5388L29.1467 12.6536C29.0294 12.7782 28.8775 12.8647 28.7105 12.9019C28.5435 12.9392 28.3692 12.9255 28.21 12.8626C26.8201 12.2851 25.715 11.1814 25.1358 9.7922C25.0738 9.63263 25.0606 9.45825 25.0978 9.29116C25.135 9.12406 25.221 8.97177 25.3448 8.8536L30.4634 3.7388C30.9194 3.2809 30.794 2.5095 30.1784 2.31C28.8509 1.88143 27.4388 1.78417 26.065 2.02672C24.6913 2.26926 23.3978 2.84423 22.2974 3.70148C21.1969 4.55874 20.3229 5.67223 19.7516 6.94483C19.1803 8.21743 18.929 9.61049 19.0197 11.0025C19.1242 12.6612 18.7765 14.4377 17.4997 15.5017L3.76274 26.9473C3.21141 27.4081 2.76207 27.9786 2.44333 28.6226C2.12459 29.2666 1.94344 29.9699 1.9114 30.6877C1.87936 31.4055 1.99714 32.1222 2.25724 32.792C2.51734 33.4618 2.91406 34.0701 3.42215 34.5782C3.93023 35.0863 4.53854 35.483 5.20836 35.7431C5.87817 36.0032 6.5948 36.121 7.31262 36.0889C8.03045 36.0569 8.73374 35.8757 9.37771 35.557C10.0217 35.2383 10.5922 34.7889 11.053 34.2376L22.4986 20.5006C23.5626 19.2238 25.3391 18.8761 26.9978 18.9806C27.1802 18.9933 27.3645 18.9996 27.5507 18.9996ZM9.50074 30.3996C9.50074 30.9035 9.30056 31.3868 8.94424 31.7431C8.58792 32.0994 8.10465 32.2996 7.60074 32.2996C7.09682 32.2996 6.61355 32.0994 6.25723 31.7431C5.90091 31.3868 5.70074 30.9035 5.70074 30.3996C5.70074 29.8957 5.90091 29.4124 6.25723 29.0561C6.61355 28.6998 7.09682 28.4996 7.60074 28.4996C8.10465 28.4996 8.58792 28.6998 8.94424 29.0561C9.30056 29.4124 9.50074 29.8957 9.50074 30.3996Z" fill="#FFCC05"></path>
<path d="M27.5502 21.8495C27.8796 21.8495 28.2051 21.8356 28.5268 21.8077L35.6594 28.9403C36.5503 29.8313 37.0509 31.0396 37.0509 32.2995C37.0509 33.5595 36.5503 34.7678 35.6594 35.6587C34.7685 36.5497 33.5602 37.0502 32.3002 37.0502C31.0403 37.0502 29.8319 36.5497 28.941 35.6587L20.562 27.2797L24.6888 22.3264C24.7876 22.2086 24.9681 22.0642 25.3386 21.954C25.8199 21.8279 26.3192 21.7848 26.8149 21.8267C27.0581 21.8419 27.3032 21.8495 27.5502 21.8495ZM11.4002 8.71295L15.8272 13.1399C15.7836 13.2029 15.7326 13.2603 15.6752 13.3109L12.9202 15.6061L8.71363 11.3995H6.28733C6.11106 11.3995 5.93825 11.3505 5.78826 11.2579C5.63827 11.1653 5.51701 11.0327 5.43803 10.8751L2.20803 4.41135C2.11878 4.23317 2.08782 4.03144 2.11953 3.83469C2.15124 3.63795 2.24402 3.45616 2.38473 3.31505L3.31573 2.38405C3.45662 2.24302 3.63831 2.14988 3.83506 2.11783C4.03182 2.08578 4.23367 2.11643 4.41203 2.20545L10.8758 5.43545C11.034 5.51471 11.1669 5.63657 11.2596 5.78729C11.3522 5.93802 11.4009 6.11162 11.4002 6.28855V8.71295Z" fill="#FFCC05"></path>
</svg>