<svg width="53" height="54" viewBox="0 0 53 54" fill="none" xmlns="http://www.w3.org/2000/svg">
<g clip-path="url(#clip0_10499_10029)">
<path d="M15.7392 53.9991C15.6206 53.6028 15.5152 53.1934 15.3704 52.8103C14.7777 51.1459 14.1718 49.4815 13.5527 47.7775C13.8293 47.6718 14.0532 47.5662 14.3035 47.4869C20.1383 45.3602 25.9732 43.2335 31.808 41.0936C32.8881 40.6973 33.2437 40.869 33.6388 41.939C34.0866 43.1806 34.5345 44.4091 34.9823 45.6508C35.2984 46.5226 35.1008 46.9585 34.2183 47.2756C28.2913 49.4419 22.3511 51.6214 16.4241 53.7878C16.266 53.8406 16.1079 53.9331 15.9631 53.9991C15.8709 53.9991 15.805 53.9991 15.7392 53.9991ZM30.8465 45.4791C31.0046 45.8489 31.1231 46.1924 31.3075 46.5094C31.5446 46.9321 31.9397 47.051 32.3875 46.9321C32.8222 46.8 33.0593 46.4698 33.0593 46.0207C33.0593 44.2242 31.5709 43.1674 29.9114 43.7751C26.882 44.8714 23.8658 45.981 20.8496 47.0906C19.5325 47.5662 18.2153 48.0417 16.9114 48.5304C16.3319 48.7418 16.1079 49.2834 16.2923 49.7985C16.4767 50.2873 16.9904 50.5119 17.5568 50.3401C17.6621 50.3137 17.7543 50.2741 17.8597 50.2345C20.4413 49.2966 23.0228 48.3455 25.5912 47.4076C27.3166 46.7736 29.0684 46.1263 30.8465 45.4791Z" fill="#FFCC05"></path>
<path d="M21.5215 53.9994C23.5103 53.2596 25.4992 52.5595 27.4617 51.7802C28.7393 51.265 30.0169 51.0405 31.3999 51.0801C33.5336 51.1461 35.6805 51.0933 37.8143 51.0933C38.025 51.0933 38.2226 51.0933 38.4992 51.0933C38.4992 51.45 38.4728 51.7406 38.4992 52.0444C38.5518 52.6388 38.9602 53.0351 39.4738 53.0219C39.9612 53.0087 40.3563 52.6256 40.409 52.0576C40.4353 51.7934 40.4222 51.5292 40.4222 51.265C40.3958 49.9441 39.6187 49.1779 38.3148 49.1647C37.2084 49.1515 36.1152 49.1647 35.0483 49.1647C35.5093 48.7817 36.1547 48.4778 36.4181 47.9759C36.8132 47.223 37.3533 47.1965 38.0382 47.223C39.0655 47.2626 40.106 47.223 41.1334 47.2362C41.9895 47.2362 42.332 47.5796 42.332 48.4646C42.332 49.8912 42.3188 51.3179 42.3451 52.7313C42.3583 53.3257 42.1608 53.7484 41.6076 53.9994C34.9034 53.9994 28.2125 53.9994 21.5215 53.9994Z" fill="#FFCC05"></path>
<path d="M30.7031 39.4429C27.4235 40.6317 24.1966 41.8206 20.9433 42.9962C20.4164 41.596 19.9423 40.2222 19.4023 38.8749C18.612 36.8935 17.6768 34.9781 16.1753 33.4326C13.304 30.5001 9.81362 29.6547 5.86226 30.4209C5.73055 30.4473 5.58567 30.4737 5.45396 30.5001C5.40127 30.5133 5.34859 30.4869 5.25639 30.4869C4.67686 28.8886 4.09732 27.277 3.50462 25.6655C2.41141 22.6538 1.30503 19.6288 0.22499 16.6171C0.0801068 16.234 -0.0120916 15.7981 0.0142508 15.3886C0.0801068 14.4771 0.77818 13.8035 1.62114 13.6978C2.51678 13.5921 3.29388 14.0544 3.63633 14.9659C4.25538 16.6038 4.83491 18.255 5.44078 19.9062C5.9808 21.3856 6.50765 22.8783 7.04767 24.3578C7.08718 24.4766 7.1267 24.5955 7.17938 24.7012C7.44281 25.2692 7.94331 25.507 8.45699 25.3088C8.93115 25.1239 9.16823 24.5955 8.97067 24.0275C8.62821 23.05 8.27259 22.0857 7.91697 21.1083C6.33643 16.7888 4.80857 12.4825 3.20168 8.18946C2.63532 6.64396 3.78121 5.25698 5.19053 5.48154C6.05983 5.61363 6.50765 6.18164 6.79742 6.96099C7.91697 10.0652 9.03652 13.1562 10.1692 16.2604C10.5907 17.436 11.0122 18.5985 11.4469 19.7741C11.4995 19.9062 11.539 20.0383 11.6049 20.1572C11.8552 20.6327 12.3293 20.8309 12.7903 20.6591C13.2645 20.4874 13.5279 19.9722 13.3567 19.4571C12.8825 18.0965 12.3952 16.7492 11.9078 15.4018C10.38 11.2012 8.85213 7.02704 7.35061 2.82645C7.2189 2.44338 7.1267 1.99426 7.16621 1.59798C7.25841 0.739366 7.96965 0.105315 8.82578 0.0128489C9.65557 -0.0796169 10.4722 0.42234 10.7883 1.29416C11.4732 3.11706 12.1186 4.95316 12.7903 6.77606C14.1206 10.4351 15.4509 14.0941 16.7812 17.7531C16.8207 17.8455 16.847 17.9512 16.8866 18.0437C17.1368 18.6381 17.6241 18.8759 18.1378 18.6909C18.6647 18.4928 18.9017 18.004 18.691 17.3964C18.1246 15.7849 17.5451 14.1997 16.9524 12.6014C15.9646 9.88027 14.9767 7.15913 13.9889 4.438C13.7913 3.89641 13.686 3.35483 13.8835 2.78682C14.1469 2.03389 14.8187 1.53193 15.5826 1.51872C16.3861 1.50551 17.0973 1.96784 17.4002 2.78682C17.9798 4.31911 18.5198 5.8514 19.073 7.38369C20.9038 12.4429 22.7477 17.5021 24.5785 22.5745C24.8288 23.2746 25.1844 23.8954 25.9352 24.1332C26.9362 24.4502 27.8318 24.0143 28.3323 22.9576C28.9777 21.6102 29.5968 20.2629 30.229 18.9023C30.5846 18.1361 31.0983 17.5549 31.9149 17.2643C33.1003 16.8548 34.1408 17.1322 34.9706 18.0437C35.7741 18.9287 35.9321 19.9855 35.4579 21.0818C34.8521 22.4688 34.1935 23.8162 33.5613 25.19C32.1783 28.1753 30.7953 31.1738 29.386 34.1591C29.1489 34.6611 29.1358 35.1234 29.3202 35.6254C29.7812 36.8935 30.229 38.1484 30.7031 39.4429Z" fill="#FFCC05"></path>
<path d="M40.3574 45.2941C39.251 45.2941 38.1841 45.3073 37.1173 45.2809C36.9987 45.2809 36.8275 45.0696 36.7748 44.911C36.3138 43.6826 35.8528 42.4541 35.4182 41.1992C34.9835 39.9443 34.2064 39.1385 32.8498 38.9536C32.7049 38.9272 32.5205 38.7687 32.4678 38.6234C32.0463 37.527 31.638 36.4306 31.2692 35.3078C31.1902 35.0833 31.2561 34.753 31.3614 34.5285C33.2318 30.4732 35.1021 26.4047 37.0119 22.3626C37.868 20.5397 37.868 18.8225 36.6958 17.1449C36.5904 16.9996 36.5641 16.7882 36.5641 16.6033C36.5509 13.0368 36.5509 9.47024 36.5641 5.9037C36.5641 5.01867 36.946 4.33178 37.7495 3.94871C38.4475 3.61848 39.1193 3.73736 39.712 4.2129C40.2783 4.67523 40.4232 5.30928 40.4232 6.00938C40.4232 8.73051 40.4232 11.4516 40.4232 14.186C40.4232 18.5319 40.4232 22.8646 40.4232 27.2105C40.4232 27.9106 40.5549 28.5314 41.1081 29.0069C41.8589 29.6542 42.9389 29.6014 43.7292 28.8616C44.3482 28.2804 44.9146 27.6728 45.5205 27.0784C46.1132 26.4839 46.6927 25.8631 47.3249 25.3083C48.2074 24.5289 49.2348 24.3572 50.3148 24.7931C51.3817 25.229 51.9744 26.0612 52.0929 27.1972C52.1983 28.2144 51.7768 29.0333 51.0524 29.7334C47.7201 32.9697 44.4009 36.2325 41.0554 39.4688C40.5681 39.9443 40.331 40.4463 40.3442 41.1332C40.3837 42.4937 40.3574 43.8675 40.3574 45.2941Z" fill="#FFCC05"></path>
<path d="M5.95312 32.3898C7.28342 32.0199 8.60054 31.9803 9.93083 32.2049C12.7626 32.6936 14.8173 34.2655 16.2398 36.7357C17.5043 38.902 18.2419 41.2797 19.098 43.6574C18.9399 43.7235 18.795 43.8027 18.6633 43.8555C17.3857 44.3311 16.0949 44.7934 14.8173 45.269C14.5539 45.3614 14.3959 45.3746 14.1983 45.1104C12.1436 42.3497 10.0625 39.6153 8.021 36.8414C7.04633 35.5072 6.4668 33.9749 5.95312 32.3898Z" fill="#FFCC05"></path>
<path d="M26.5274 22.3105C26.0005 20.8707 25.5263 19.5497 25.0522 18.2288C24.9995 18.0703 24.9863 17.8853 24.9863 17.7136C24.9863 13.764 24.9863 9.8144 24.9863 5.86479C24.9863 4.79483 25.5922 3.98905 26.501 3.80412C27.6206 3.57956 28.6216 4.26645 28.806 5.40246C28.8455 5.64023 28.8455 5.89121 28.8455 6.14218C28.8455 9.58984 28.8455 13.0243 28.8587 16.4719C28.8587 17.0531 28.7665 17.5815 28.4899 18.1231C27.884 19.2987 27.3571 20.5404 26.804 21.7425C26.7381 21.901 26.6591 22.0463 26.5274 22.3105Z" fill="#FFCC05"></path>
<path d="M34.6399 15.5217C33.3096 15.0858 32.0715 15.1254 30.8071 15.667C30.7939 15.5349 30.7676 15.4425 30.7676 15.3368C30.7676 10.9117 30.7544 6.4865 30.7676 2.06136C30.7676 0.595114 32.0583 -0.355962 33.3623 0.119576C34.1657 0.410183 34.6399 1.1367 34.6399 2.15382C34.6399 4.54472 34.6399 6.93562 34.6399 9.31331C34.6399 11.3608 34.6399 13.395 34.6399 15.5217Z" fill="#FFCC05"></path>
</g>
<defs>
<clipPath id="clip0_10499_10029">
<rect width="52.1053" height="54" fill="white"></rect>
</clipPath>
</defs>
</svg>