<svg width="31" height="54" viewBox="0 0 31 54" fill="none" xmlns="http://www.w3.org/2000/svg">
<g clip-path="url(#clip0_10499_10008)">
<path d="M15.8624 3.55859C16.7453 3.55859 17.5988 3.55859 18.5258 3.55859C18.5258 3.95717 18.5258 4.34099 18.5258 4.7248C18.5258 5.10862 18.7171 5.37434 19.085 5.30053C20.2622 5.04957 20.8508 5.66958 21.2922 6.64389C21.5277 7.17532 21.8808 7.66248 22.1898 8.16439C22.8079 9.15345 23.6908 9.80299 24.8532 10.0687C25.8244 10.2901 26.7809 10.5263 27.7521 10.7182C28.1641 10.7921 28.3554 10.9692 28.4584 11.3973C29.047 14.0102 29.3266 16.6674 29.4296 19.3541C29.8122 28.6838 30.1947 38.0135 30.5773 47.3432C30.6656 49.4099 30.7539 51.4766 30.8569 53.5433C30.8569 53.6909 30.8569 53.8385 30.8569 54.0157C27.031 54.0157 23.2346 54.0157 19.3646 54.0157C19.2763 53.2923 19.188 52.5395 19.0997 51.8013C18.5258 46.6494 17.9667 41.4974 17.4075 36.3454C16.8925 31.7248 16.3922 27.1042 15.8624 22.4837C15.7006 21.1551 15.3327 19.8265 15.2444 18.4979C15.1414 16.756 15.1708 14.9993 15.2444 13.2573C15.3768 10.3049 15.5976 7.36723 15.7889 4.4148C15.8036 4.11956 15.833 3.85384 15.8624 3.55859Z" fill="#FFCC05"></path>
<path d="M0 54C0.117719 51.0919 0.235438 48.2576 0.353158 45.4085C0.515022 41.4227 0.6916 37.4517 0.853464 33.4659C1.07419 28.0777 1.25077 22.6895 1.55978 17.3161C1.6775 15.2789 2.14838 13.2712 2.44267 11.2488C2.48682 10.9093 2.67811 10.7912 2.97241 10.7321C3.97302 10.5255 4.98835 10.2893 5.98896 10.0678C7.16616 9.80213 8.06376 9.15259 8.68179 8.11924C9.1821 7.29256 9.66769 6.43635 10.1974 5.60967C10.3004 5.44729 10.5506 5.29967 10.7419 5.29967C12.2722 5.24062 12.2722 5.25538 12.3311 3.73488C12.3311 3.67583 12.3458 3.63154 12.3605 3.54297C13.1993 3.54297 14.038 3.54297 14.9356 3.54297C14.862 4.8568 14.7738 6.15587 14.7002 7.45494C14.5383 10.0826 14.3765 12.725 14.1999 15.3527C14.038 17.6851 14.553 19.9437 14.9062 22.2171C14.9356 22.409 14.9651 22.6157 14.9503 22.8224C14.3912 27.9301 13.8026 33.0525 13.2434 38.1602C12.7137 42.9875 12.1839 47.7999 11.6542 52.6272C11.6101 53.0848 11.5365 53.5277 11.4776 54C7.65175 54 3.84059 54 0 54Z" fill="#FFCC05"></path>
<path d="M4.29675 3.54297C5.8271 3.54297 7.26916 3.54297 8.81423 3.54297C8.81423 3.89726 8.77008 4.23679 8.82894 4.57632C8.87309 4.87156 9.03495 5.15204 9.13795 5.43253C9.19681 5.41776 9.25567 5.41776 9.31453 5.403C8.81423 6.22968 8.32863 7.08589 7.7989 7.89781C7.4016 8.50306 6.84243 8.93116 6.15083 9.12307C5.09136 9.40355 4.01717 9.62498 2.81055 9.90546C3.29614 7.72066 3.79645 5.6392 4.29675 3.54297Z" fill="#FFCC05"></path>
<path d="M28.0901 9.89047C26.8099 9.58047 25.6327 9.38856 24.5143 9.00474C23.9846 8.8276 23.4696 8.36997 23.1164 7.91234C22.5278 7.12995 22.0717 6.22946 21.5566 5.37325C22.469 4.97467 21.8509 4.17751 22.1305 3.57227C23.5579 3.57227 25.0441 3.57227 26.5744 3.57227C27.06 5.60944 27.5456 7.67615 28.0901 9.89047Z" fill="#FFCC05"></path>
<path d="M18.4973 0.0292969C18.4973 0.915027 18.4973 1.75647 18.4973 2.61268C16.4519 2.61268 14.4507 2.61268 12.3906 2.61268C12.3906 1.77123 12.3906 0.915027 12.3906 0.0292969C14.3919 0.0292969 16.4225 0.0292969 18.4973 0.0292969Z" fill="#FFCC05"></path>
<path d="M4.53125 2.6129C4.75197 1.71241 4.9727 0.856206 5.17871 0C6.38533 0 7.56252 0 8.76914 0C8.76914 0.870968 8.76914 1.72717 8.76914 2.6129C7.37123 2.6129 5.98802 2.6129 4.53125 2.6129Z" fill="#FFCC05"></path>
<path d="M26.3405 2.61268C24.8984 2.61268 23.5152 2.61268 22.0879 2.61268C22.0879 1.74171 22.0879 0.900265 22.0879 0.0292969C23.2651 0.0292969 24.4423 0.0292969 25.693 0.0292969C25.899 0.855978 26.1051 1.72695 26.3405 2.61268Z" fill="#FFCC05"></path>
<path d="M9.71094 4.37046C9.71094 2.90901 9.71094 1.47708 9.71094 0.015625C10.2701 0.015625 10.8146 0.015625 11.4032 0.015625C11.4032 1.44756 11.4032 2.89425 11.4032 4.37046C10.8734 4.37046 10.3142 4.37046 9.71094 4.37046Z" fill="#FFCC05"></path>
<path d="M19.4238 4.38523C19.4238 2.92377 19.4238 1.49184 19.4238 0.015625C19.9977 0.015625 20.5569 0.015625 21.1308 0.015625C21.1308 1.46232 21.1308 2.90901 21.1308 4.38523C20.5716 4.38523 20.0271 4.38523 19.4238 4.38523Z" fill="#FFCC05"></path>
</g>
<defs>
<clipPath id="clip0_10499_10008">
<rect width="30.8571" height="54" fill="white"></rect>
</clipPath>
</defs>
</svg>