<svg width="15" height="14" viewBox="0 0 15 14" fill="none" xmlns="http://www.w3.org/2000/svg">
<g clip-path="url(#clip0_4225_250)">
<path d="M8.00143 13.9891L6.96575 13.9818C6.95116 13.9818 6.85634 13.9745 6.83082 13.9708C5.96288 13.8796 5.13506 13.6498 4.3583 13.2522C4.24889 13.1975 4.15408 13.1866 4.03738 13.223C3.41013 13.4091 2.78289 13.5915 2.15564 13.7702C1.8639 13.8541 1.56486 13.927 1.26947 14.0036C1.16371 14 1.06525 13.9964 0.959495 13.9927C0.729747 13.9125 0.576582 13.752 0.503647 13.5185C0.503647 13.5149 0.5 13.5076 0.5 13.5039C0.5 13.4237 0.5 13.3398 0.5 13.2595C0.5 13.2449 0.507294 13.234 0.514587 13.223C0.518234 13.2194 0.521881 13.2157 0.525527 13.2084C0.864678 12.457 1.20383 11.7019 1.55027 10.9505C1.60133 10.8374 1.60133 10.7608 1.53569 10.655C1.03243 9.84888 0.718807 8.97342 0.576582 8.03596C0.558349 7.91558 0.540115 7.8098 0.525527 7.68577C0.525527 7.67848 0.507294 7.38666 0.507294 7.37936L0.5 6.70818C0.5 6.57686 0.51094 6.44554 0.536468 6.31787C0.554702 6.23033 0.551055 6.14278 0.561995 6.05524C0.762568 4.67275 1.30959 3.44346 2.23587 2.39656C3.36637 1.11621 4.77768 0.339239 6.46614 0.0729547C6.60107 0.0510683 6.52084 0.0656592 6.70318 0.0364773C6.75788 0.0291819 7.1335 0 7.19185 0L8.01237 0.0182387C8.06343 0.0218864 8.08166 0.0218864 8.10719 0.0255341C9.15382 0.11308 10.1348 0.415842 11.0319 0.959354C12.9246 2.10839 14.0624 3.7754 14.4271 5.96404C14.4489 6.08807 14.4489 6.21209 14.4708 6.33246C14.4891 6.4346 14.5036 6.53674 14.5036 6.63887L14.5 7.39031C14.5 7.45961 14.4927 7.52527 14.4854 7.59458C14.4818 7.62011 14.4781 7.64565 14.4781 7.65659C14.3359 9.06097 13.829 10.3231 12.9319 11.4138C11.7904 12.8035 10.3244 13.6425 8.5448 13.9234C8.36611 13.9489 8.00508 13.9891 8.00143 13.9891ZM2.25046 12.3585C2.23222 12.395 2.26869 12.4351 2.3088 12.4242C2.86312 12.271 3.41743 12.1251 3.97174 11.9646C4.21243 11.8953 4.4677 11.9208 4.68651 12.0375C6.24733 12.8838 7.8738 13.0261 9.53308 12.3986C12.6985 11.2022 14.1426 7.63106 12.7313 4.55237C11.6701 2.23971 9.09182 0.864513 6.59742 1.28765C5.18247 1.5284 3.99726 2.18864 3.07828 3.29026C2.00977 4.57061 1.58309 6.05159 1.76908 7.70401C1.87484 8.64878 2.21399 9.51329 2.76101 10.2903C2.92876 10.5274 2.95429 10.8338 2.83029 11.0928C2.67713 11.4065 2.53855 11.7275 2.39633 12.0485C2.34163 12.1506 2.29786 12.2564 2.25046 12.3585Z" fill="#3C3C3C"></path>
<path d="M4.07812 5.41294C4.07812 4.78553 4.31152 4.33321 4.75643 3.98668C5.09193 3.72769 5.44202 3.73498 5.74471 4.0268C6.15314 4.41346 6.35007 4.90591 6.39383 5.46036C6.40842 5.6391 6.32819 5.7996 6.22608 5.94186C6.13856 6.05859 6.04374 6.17167 5.95257 6.28475C5.8614 6.39783 5.85046 6.51456 5.9234 6.63858C6.47406 7.55416 7.23259 8.22534 8.23181 8.62295C8.39956 8.68861 8.49073 8.66307 8.59649 8.51351C8.68401 8.38949 8.76424 8.26547 8.84447 8.1378C9.02316 7.84233 9.27114 7.7402 9.6103 7.82045C10.037 7.91893 10.4235 8.08308 10.7372 8.39679C11.0216 8.68496 11.0654 8.98407 10.894 9.3452C10.5986 9.96896 9.99321 10.29 9.2675 10.2243C8.47614 10.1513 7.77596 9.83764 7.1159 9.4218C6.06562 8.76156 5.17581 7.92988 4.54491 6.8465C4.2714 6.37959 4.08542 5.89444 4.07812 5.41294Z" fill="#3C3C3C"></path>
</g>
<defs>
<clipPath id="clip0_4225_250">
<rect width="14" height="14" fill="white" transform="translate(0.5)"></rect>
</clipPath>
</defs>
</svg>