<svg width="33" height="33" viewBox="0 0 33 33" fill="none" xmlns="http://www.w3.org/2000/svg">
<path d="M19.8941 0.451127C19.8941 0.451127 19.8228 0.420969 19.8025 0.420969C17.3297 -0.141987 14.979 -0.141987 12.5774 0.431022C12.5265 0.441075 12.4756 0.46118 12.4756 0.46118C5.09792 3.25586 2.12648 7.38755 0.315123 10.6748C0.233713 10.8256 0.182833 10.9865 0.172656 11.1473C0.00983784 13.7811 0.77305 17.4102 2.02472 20.4361C3.25603 23.4318 4.28383 25.9651 5.56602 28.2974C5.75937 28.6492 6.23765 29.0413 6.63452 29.1619C9.74843 30.1169 12.8623 31.0619 15.9762 32.0169C16.1187 32.0571 16.2713 32.0571 16.424 32.0169C19.5277 31.0719 22.6315 30.1169 25.7352 29.172C26.0405 29.0815 26.6002 28.7296 26.7426 28.4582C28.0655 26.0858 29.1035 23.5122 30.3653 20.4461C31.5967 17.4303 32.2276 13.8817 32.197 11.1976C32.197 11.0066 32.1462 10.8256 32.0546 10.6547C30.2229 7.3574 27.2413 3.25586 19.8941 0.451127Z" fill="#FFCC05" stroke="#313638" stroke-width="0.301662" stroke-miterlimit="10"></path>
<path d="M28.3867 9.9113C28.2442 9.75046 27.8677 9.63988 27.8473 9.62982C26.4736 9.22771 24.9777 8.86581 23.38 8.58433C20.7342 8.1219 18.3021 7.98117 16.1448 8.01132C14.2215 7.96106 12.0132 8.07164 9.61166 8.47375C7.86136 8.76528 6.24335 9.17745 4.79833 9.62982C4.77798 9.63988 4.33023 9.83088 4.25899 9.9113C3.46525 10.8261 3.30243 11.0171 2.3764 12.1631C2.1627 12.4346 2.09147 12.8568 2.20341 13.2287L4.20811 19.6525C4.26917 19.8636 4.39128 20.0445 4.54393 20.1551L9.67271 23.8545C9.88641 24.0053 10.2222 24.0254 10.4461 23.8746L15.4324 20.4768C15.8598 20.1853 16.562 20.145 16.9996 20.4265L22.2097 23.8646C22.4234 24.0053 22.7898 24.0154 22.9933 23.8646L28.1221 20.1652C28.2747 20.0546 28.3969 19.8736 28.4579 19.6625L30.3609 13.2388C30.4728 12.8668 30.3914 12.4547 30.1879 12.1732C29.4755 11.2282 29.2313 10.9367 28.3867 9.9113Z" fill="#2C2C2E" stroke="#2C2C2E" stroke-width="0.30089" stroke-miterlimit="10"></path>
<path d="M5.70667 18.1194C5.7779 18.3808 5.94072 18.602 6.14424 18.7628L9.33956 20.894C9.56343 21.0348 9.77713 20.9543 9.92977 20.8538L15.2417 17.6168C15.7302 17.2951 16.0558 17.3353 16.473 17.5967L21.6527 20.884C21.8359 20.9945 22.0598 20.9945 22.2328 20.884L25.4891 18.8131C25.7842 18.6221 25.9471 18.5014 26.0386 18.1295C26.4966 16.1189 27.097 13.5354 27.5549 11.5349C27.7075 10.8714 27.5956 10.7206 26.9341 10.5497C26.7204 10.4994 26.12 10.3285 25.886 10.2682C21.5408 9.24282 18.0198 9.05182 16.1169 9.01161C15.659 9.00156 15.028 8.9915 14.1936 9.01161C12.8096 9.05182 10.8863 9.19256 8.62722 9.63488C7.29415 9.89625 5.3912 10.2984 4.65852 10.5899C4.14971 10.791 4.12936 11.183 4.15989 11.3338C4.93328 14.6713 5.00451 15.3951 5.70667 18.1194Z" fill="#FDEBC4"></path>
</svg>