<svg width="68" height="36" viewBox="0 0 68 36" fill="none" xmlns="http://www.w3.org/2000/svg">
<path d="M4.50867 27.0813C4.71511 27.8575 5.18696 28.5142 5.77677 28.9919L15.0368 35.3207C15.6856 35.7386 16.3049 35.4998 16.7472 35.2013L32.1413 25.5886C33.5569 24.6333 34.5006 24.7527 35.7097 25.5289L50.7203 35.2909C51.2512 35.6192 51.9 35.6192 52.4013 35.2909L61.8383 29.1411C62.6935 28.5739 63.1654 28.2157 63.4308 27.1111C64.7578 21.1405 66.4978 13.4683 67.8249 7.52757C68.2672 5.55727 67.9428 5.10948 66.0259 4.60198C65.4066 4.45271 63.6667 3.94521 62.9884 3.76609C50.3959 0.72109 40.1922 0.153883 34.6775 0.0344713C33.3504 0.00461827 31.522 -0.0252347 29.1038 0.0344713C25.0931 0.153883 19.5194 0.571824 12.9725 1.88536C9.1092 2.66153 3.59447 3.85565 1.47115 4.72139C-0.003379 5.31845 -0.0623594 6.48272 0.0261122 6.93051C2.26739 16.8417 2.47383 18.9911 4.50867 27.0813Z" fill="#FFCC05"></path>
</svg>